<svg width="50" height="50" viewBox="0 0 80 80" fill="none" xmlns="http://www.w3.org/2000/svg">
<path fill-rule="evenodd" clip-rule="evenodd" d="M40 80C62.0914 80 80 62.0914 80 40C80 17.9086 62.0914 0 40 0C17.9086 0 0 17.9086 0 40C0 62.0914 17.9086 80 40 80Z" fill="#4B4B4B"/>
<path fill-rule="evenodd" clip-rule="evenodd" d="M55.6848 57.978H24.5556C22.0397 57.978 20 55.9298 20 53.4036V30.1506C20 27.6244 22.0397 25.5762 24.5556 25.5762H55.6848C58.2006 25.5762 60.2404 27.6244 60.2404 30.1506V53.4036C60.2404 55.9298 58.2006 57.978 55.6848 57.978V57.978Z" stroke="white" stroke-width="2"/>
<path d="M20.7588 38.4414H59.481" stroke="white" stroke-width="2"/>
<path d="M35.5643 38.4414V57.8828H31.0088V38.4414" stroke="white" stroke-width="2"/>
<path d="M44.6758 57.8828V38.4414" stroke="white" stroke-width="2"/>
<path d="M49.231 38.4414V57.8828" stroke="white" stroke-width="2"/>
<path d="M34.4255 24.718C34.4255 24.718 34.1408 19 40.1199 19C45.7199 19 45.8144 24.718 45.8144 24.718" stroke="white" stroke-width="2"/>
</svg>
