<svg width="50" height="50" viewBox="0 0 80 80" fill="none" xmlns="http://www.w3.org/2000/svg">
<path fill-rule="evenodd" clip-rule="evenodd" d="M40 80C62.0914 80 80 62.0914 80 40C80 17.9086 62.0914 0 40 0C17.9086 0 0 17.9086 0 40C0 62.0914 17.9086 80 40 80Z" fill="#4B4B4B"/>
<path fill-rule="evenodd" clip-rule="evenodd" d="M56.7062 58.4318H24.0874C22.284 58.4318 20.8228 56.9696 20.8228 55.1662V31.059C20.8228 29.2556 22.284 27.7935 24.0874 27.7935H56.7062C58.5096 27.7935 59.9717 29.2556 59.9717 31.059V55.1662C59.9717 56.9696 58.5096 58.4318 56.7062 58.4318V58.4318Z" stroke="white" stroke-width="2"/>
<path fill-rule="evenodd" clip-rule="evenodd" d="M51.4609 48.2189H59.9715V38.0061H51.4609C49.5809 38.0061 48.0566 39.5304 48.0566 41.4104V44.8146C48.0566 46.6946 49.5809 48.2189 51.4609 48.2189V48.2189Z" stroke="white" stroke-width="2"/>
<path fill-rule="evenodd" clip-rule="evenodd" d="M54.8652 43.1125C54.8652 44.053 54.1035 44.8147 53.1631 44.8147C52.2226 44.8147 51.4609 44.053 51.4609 43.1125C51.4609 42.1721 52.2226 41.4104 53.1631 41.4104C54.1035 41.4104 54.8652 42.1721 54.8652 43.1125Z" fill="white"/>
<path d="M37.8438 27.7934L49.7586 19.2827L54.865 27.7934" stroke="white" stroke-width="2"/>
<path d="M29.333 27.7934L37.8436 19.2827L42.95 24.3891" stroke="white" stroke-width="2"/>
</svg>
