<svg width="50" height="50" viewBox="0 0 80 80" fill="none" xmlns="http://www.w3.org/2000/svg">
<path fill-rule="evenodd" clip-rule="evenodd" d="M40 80C62.0914 80 80 62.0914 80 40C80 17.9086 62.0914 0 40 0C17.9086 0 0 17.9086 0 40C0 62.0914 17.9086 80 40 80Z" fill="#4B4B4B"/>
<path fill-rule="evenodd" clip-rule="evenodd" d="M56.4863 55.9787C56.6149 56.4809 56.4676 57.0204 56.1008 57.3873L54.5374 58.9532C54.4302 59.0604 54.2736 59.1107 54.128 59.0919C53.9774 59.0715 53.8463 58.983 53.7706 58.8511L43.8974 41.5524L42.9323 41.389L31.8208 51.0885L33.2132 57.0434C33.334 57.5626 33.1817 58.0979 32.8055 58.4749L31.7791 59.5013C31.6676 59.6136 31.511 59.6604 31.3527 59.6281C31.1978 59.5966 31.0702 59.4902 31.0115 59.3421L28.7144 53.5958L26.0455 50.9447L20.2591 48.6273C20.1298 48.5753 20.037 48.463 20.0089 48.3251C19.98 48.189 20.0225 48.0485 20.1229 47.9481L21.1961 46.8741C21.4923 46.5762 21.8855 46.4153 22.2923 46.4153C22.4115 46.4153 22.5323 46.4298 22.6515 46.4579L28.5842 47.8485L38.2736 36.7226L38.1102 35.7583L20.734 25.8179C20.6242 25.7549 20.5519 25.6477 20.5349 25.5217C20.5187 25.3992 20.5612 25.2741 20.6489 25.1856L22.2625 23.5702C22.648 23.1847 23.2157 23.0298 23.7408 23.1651L46.0949 28.8945L52.3144 22.6681C52.9357 22.0451 53.7629 21.7021 54.6421 21.7021C55.5093 21.7021 56.3578 22.0545 56.9715 22.669C57.5842 23.2826 57.9366 24.1328 57.9366 25.0009C57.9366 25.869 57.5842 26.7183 56.9706 27.3328L50.7527 33.5583L56.4863 55.9787Z" stroke="white" stroke-width="2"/>
</svg>
